<svg version="1.1" id="Layer_1" xmlns="http://www.w3.org/2000/svg" xmlns:xlink="http://www.w3.org/1999/xlink" x="0px" y="0px"
	 width="100%" viewBox="0 0 446 371" enable-background="new 0 0 446 371" xml:space="preserve">
<path fill="#010101" opacity="1.000000" stroke="none" 
	d="
M277.000000,372.000000 
	C184.694763,372.000000 92.889526,372.000000 1.042145,372.000000 
	C1.042145,248.399277 1.042145,124.798538 1.042145,1.098899 
	C149.555191,1.098899 298.110474,1.098899 446.832886,1.098899 
	C446.832886,124.666481 446.832886,248.333221 446.832886,372.000000 
	C390.465271,372.000000 333.982635,372.000000 277.000000,372.000000 
M86.725441,94.832947 
	C86.725441,94.832947 86.770813,94.684265 86.230988,94.847954 
	C86.053658,95.165054 85.876328,95.482147 85.920837,95.904137 
	C85.920837,95.904137 85.726120,95.754807 85.149811,96.100731 
	C85.071739,96.740593 84.993660,97.380463 84.721809,98.938744 
	C84.799416,116.294640 84.877014,133.650543 85.386246,151.760986 
	C92.668716,151.535034 99.951180,151.309082 107.606369,150.491638 
	C107.531746,149.336319 107.457130,148.181000 107.595749,146.569748 
	C107.529793,146.415466 107.463844,146.261200 107.634766,145.186417 
	C107.559639,132.409286 107.484512,119.632149 107.761024,106.246727 
	C108.635696,104.881889 109.510368,103.517052 110.978790,101.904716 
	C115.960045,96.258446 120.941292,90.612175 125.994217,84.991623 
	C125.994217,84.991623 125.967735,84.920166 126.734123,84.532043 
	C128.484436,84.196312 130.234482,83.568771 131.985123,83.567146 
	C188.915894,83.514458 245.846756,83.545174 302.777466,83.458725 
	C305.941132,83.453926 307.847839,84.399956 309.714752,87.048897 
	C318.834747,99.989006 335.653625,102.923256 348.507660,94.078140 
	C361.421448,85.191902 364.729584,68.402573 356.154144,55.270920 
	C347.754181,42.407879 330.449982,38.470089 317.575897,47.272003 
	C312.985657,50.410328 309.780884,55.575153 305.965057,59.405827 
	C305.965057,59.405827 305.947205,58.996506 305.373138,58.399895 
	C304.396210,58.266617 303.419342,58.016991 302.442383,58.016689 
	C242.023163,57.998070 181.603943,57.993130 121.184746,58.041485 
	C119.789482,58.042599 118.394699,58.665970 117.014938,59.547157 
	C117.022057,59.729778 117.029182,59.912395 116.990227,60.517288 
	C116.990227,60.517288 116.982132,60.941982 116.434654,61.327194 
	C106.795395,72.063805 97.156128,82.800423 87.111290,93.812592 
	C86.851883,94.043655 86.714493,94.332703 86.725441,94.832947 
M163.539047,197.627792 
	C164.677261,196.340424 165.815491,195.053055 167.893997,193.835266 
	C206.143051,193.843094 244.392120,193.863144 282.641174,193.848206 
	C290.118622,193.845291 297.596039,193.706711 305.771881,193.842468 
	C306.959198,195.129929 308.280914,196.318466 309.312744,197.720352 
	C318.256561,209.872192 333.986053,213.493317 346.548309,206.236633 
	C359.466614,198.774277 364.322052,184.040070 358.094788,170.025620 
	C353.299927,159.234726 344.574615,153.904327 332.845917,153.678619 
	C321.287537,153.456192 311.598083,159.750061 306.699921,170.233841 
	C306.448486,170.449219 306.197052,170.664612 305.296692,170.741318 
	C304.863556,170.808533 304.430420,170.875748 303.078613,170.739227 
	C256.543152,170.723694 210.007675,170.706863 163.472214,170.703018 
	C162.648926,170.702957 161.825653,170.858612 160.208054,170.749771 
	C158.329071,171.477203 155.888870,171.685974 154.660736,173.014893 
	C145.591339,182.828552 136.763535,192.865463 127.257759,203.451370 
	C127.149368,216.629593 127.025528,229.807739 126.979469,242.986191 
	C126.977226,243.627045 127.657707,244.270309 128.945786,245.053558 
	C172.982224,245.065460 217.018784,245.031799 261.054840,245.165421 
	C265.097107,245.177673 266.299774,243.766220 266.091064,239.935669 
	C265.802216,234.634201 265.924500,229.310303 265.963348,223.495605 
	C265.700134,223.308670 265.436920,223.121750 264.629578,222.246765 
	C262.806396,222.165771 260.983246,222.014893 259.160034,222.014145 
	C224.857681,222.000092 190.555313,222.003815 156.252960,222.003815 
	C154.338333,222.003815 152.423706,222.003799 150.698303,222.003799 
	C149.328110,215.790314 150.296829,211.269730 154.774231,207.391098 
	C157.867874,204.711182 160.189850,201.140442 162.955246,197.965759 
	C162.955246,197.965759 162.947647,197.867447 163.539047,197.627792 
M181.500000,127.067711 
	C169.168564,127.067711 156.834641,126.941231 144.508057,127.185822 
	C142.322296,127.229195 139.580780,128.246140 138.087601,129.779343 
	C120.899132,147.428558 103.872421,165.236084 86.916550,183.109512 
	C85.693855,184.398361 84.716515,186.526398 84.707741,188.269714 
	C84.570267,215.598801 84.569756,242.929001 84.708900,270.258087 
	C84.717606,271.966675 85.719894,274.113434 86.974945,275.300049 
	C94.716171,282.619232 102.767975,289.610596 110.486694,296.952576 
	C113.374489,299.699432 116.376404,300.542603 120.292480,300.535034 
	C180.951035,300.417877 241.609909,300.477570 302.268524,300.382874 
	C305.437653,300.377930 307.335632,301.186157 309.086365,303.976471 
	C314.233002,312.179260 322.086426,316.320953 331.591766,316.817139 
	C345.467346,317.541321 357.446594,307.667969 360.523224,293.480347 
	C363.036774,281.889465 355.670044,267.832245 344.556396,263.012299 
	C331.361298,257.289673 317.012482,261.098419 309.316742,272.876038 
	C307.040131,276.360138 304.776367,277.540405 300.625183,277.527222 
	C247.465988,277.358337 194.299332,276.960449 141.151138,277.744080 
	C128.276016,277.933899 118.184875,275.203064 110.334221,265.176514 
	C109.032257,263.513672 107.819145,261.216217 107.800797,259.200745 
	C107.615601,238.871750 107.628494,218.539932 107.785637,198.210449 
	C107.800407,196.300385 108.699837,193.948135 110.001190,192.566818 
	C122.330353,179.480011 134.918808,166.637161 147.221741,153.526215 
	C149.751343,150.830460 152.314438,149.998901 155.875885,150.011749 
	C189.037796,150.131409 222.200333,150.082611 255.362686,150.082642 
	C257.136505,150.082642 258.910339,150.082642 260.713135,150.082642 
	C260.713135,142.168716 260.713135,134.772568 260.713135,127.067711 
	C234.434525,127.067711 208.467270,127.067711 181.500000,127.067711 
z"/>
<path fill="#FBFBFB" opacity="1.000000" stroke="none" 
	d="
M182.000000,127.067711 
	C208.467270,127.067711 234.434525,127.067711 260.713135,127.067711 
	C260.713135,134.772568 260.713135,142.168716 260.713135,150.082642 
	C258.910339,150.082642 257.136505,150.082642 255.362686,150.082642 
	C222.200333,150.082611 189.037796,150.131409 155.875885,150.011749 
	C152.314438,149.998901 149.751343,150.830460 147.221741,153.526215 
	C134.918808,166.637161 122.330353,179.480011 110.001190,192.566818 
	C108.699837,193.948135 107.800407,196.300385 107.785637,198.210449 
	C107.628494,218.539932 107.615601,238.871750 107.800797,259.200745 
	C107.819145,261.216217 109.032257,263.513672 110.334221,265.176514 
	C118.184875,275.203064 128.276016,277.933899 141.151138,277.744080 
	C194.299332,276.960449 247.465988,277.358337 300.625183,277.527222 
	C304.776367,277.540405 307.040131,276.360138 309.316742,272.876038 
	C317.012482,261.098419 331.361298,257.289673 344.556396,263.012299 
	C355.670044,267.832245 363.036774,281.889465 360.523224,293.480347 
	C357.446594,307.667969 345.467346,317.541321 331.591766,316.817139 
	C322.086426,316.320953 314.233002,312.179260 309.086365,303.976471 
	C307.335632,301.186157 305.437653,300.377930 302.268524,300.382874 
	C241.609909,300.477570 180.951035,300.417877 120.292480,300.535034 
	C116.376404,300.542603 113.374489,299.699432 110.486694,296.952576 
	C102.767975,289.610596 94.716171,282.619232 86.974945,275.300049 
	C85.719894,274.113434 84.717606,271.966675 84.708900,270.258087 
	C84.569756,242.929001 84.570267,215.598801 84.707741,188.269714 
	C84.716515,186.526398 85.693855,184.398361 86.916550,183.109512 
	C103.872421,165.236084 120.899132,147.428558 138.087601,129.779343 
	C139.580780,128.246140 142.322296,127.229195 144.508057,127.185822 
	C156.834641,126.941231 169.168564,127.067711 182.000000,127.067711 
M330.794312,301.306458 
	C340.897369,301.508728 347.946106,293.906403 345.387787,285.566864 
	C343.287903,278.721832 337.961304,275.005341 331.198730,275.666779 
	C324.977844,276.275238 320.352997,280.849548 319.826965,286.914246 
	C319.171356,294.473419 322.333008,298.932953 330.794312,301.306458 
z"/>
<path fill="#EF691E" opacity="1.000000" stroke="none" 
	d="
M162.856644,197.967773 
	C160.189850,201.140442 157.867874,204.711182 154.774231,207.391098 
	C150.296829,211.269730 149.328110,215.790314 150.698303,222.003799 
	C152.423706,222.003799 154.338333,222.003815 156.252960,222.003815 
	C190.555313,222.003815 224.857681,222.000092 259.160034,222.014145 
	C260.983246,222.014893 262.806396,222.165771 264.421631,222.614288 
	C227.181625,222.981796 190.149612,222.981796 153.117584,222.981796 
	C153.117874,223.319870 153.118149,223.657944 153.118423,223.996017 
	C190.702530,223.996017 228.286652,223.996017 265.870758,223.996017 
	C265.924500,229.310303 265.802216,234.634201 266.091064,239.935669 
	C266.299774,243.766220 265.097107,245.177673 261.054840,245.165421 
	C217.018784,245.031799 172.982224,245.065460 128.468658,244.520935 
	C127.947594,230.269577 127.903671,216.550873 127.859741,202.832153 
	C136.763535,192.865463 145.591339,182.828552 154.660736,173.014893 
	C155.888870,171.685974 158.329071,171.477203 160.580505,171.171280 
	C160.635056,172.397491 160.317139,173.202209 159.911621,174.296143 
	C160.439651,174.724152 161.055267,174.984192 161.670975,174.984436 
	C208.386215,175.002930 255.101486,175.009567 301.816681,174.958710 
	C303.210693,174.957199 304.604065,174.336044 305.818481,173.740570 
	C305.091919,172.632553 304.544617,171.787766 303.997284,170.942963 
	C304.430420,170.875748 304.863556,170.808533 305.762146,171.040085 
	C306.622803,171.403229 307.018036,171.467606 307.413269,171.531982 
	C307.332153,171.040436 307.251068,170.548874 307.169952,170.057327 
	C311.598083,159.750061 321.287537,153.456192 332.845917,153.678619 
	C344.574615,153.904327 353.299927,159.234726 358.094788,170.025620 
	C364.322052,184.040070 359.466614,198.774277 346.548309,206.236633 
	C333.986053,213.493317 318.256561,209.872192 309.312744,197.720352 
	C308.280914,196.318466 306.959198,195.129929 305.538940,193.531799 
	C305.537354,192.814087 305.768677,192.407043 306.000092,191.752655 
	C306.000183,191.505341 306.000000,191.010696 306.001953,190.756683 
	C306.002289,190.333298 306.000641,190.163956 305.701294,189.702347 
	C304.760193,189.276199 304.116882,189.025436 303.473450,189.025116 
	C261.210785,189.003998 218.948105,188.994720 176.685501,189.042419 
	C175.456818,189.043793 174.228821,189.666351 172.999008,190.251465 
	C172.998123,190.671783 172.998749,190.839920 173.000153,191.254974 
	C173.000900,191.501892 173.003052,191.995728 172.565247,191.997253 
	C170.633881,191.977921 169.120712,192.105179 167.650101,191.910721 
	C161.040680,191.036591 161.045044,191.003632 160.724899,198.020020 
	C160.102356,198.285065 159.747574,198.523132 159.392807,198.761200 
	C159.537445,198.939346 159.682068,199.117477 159.826706,199.295624 
	C160.219498,198.866058 160.612289,198.436478 161.313705,198.000488 
	C162.033768,197.985306 162.445206,197.976547 162.856644,197.967773 
M335.008270,168.964767 
	C326.631561,167.537079 320.975403,173.277496 319.951630,178.786667 
	C318.670929,185.678635 321.989136,191.825729 328.205383,194.004272 
	C335.257812,196.475876 342.146301,193.087265 345.020477,185.732513 
	C347.625427,179.066635 343.956635,172.417511 335.008270,168.964767 
z"/>
<path fill="#EF691E" opacity="1.000000" stroke="none" 
	d="
M87.516869,93.537033 
	C97.156128,82.800423 106.795395,72.063805 116.742722,61.262287 
	C117.050789,61.197380 117.209801,61.408340 117.541092,61.609512 
	C118.034821,61.845943 118.197243,61.912022 118.359688,61.912102 
	C179.695282,61.943275 241.030899,61.979576 302.366425,61.928337 
	C303.606628,61.927299 304.846008,60.904942 306.040039,60.225704 
	C305.994293,60.092342 305.943695,59.814957 305.943695,59.814957 
	C309.780884,55.575153 312.985657,50.410328 317.575897,47.272003 
	C330.449982,38.470089 347.754181,42.407879 356.154144,55.270920 
	C364.729584,68.402573 361.421448,85.191902 348.507660,94.078140 
	C335.653625,102.923256 318.834747,99.989006 309.714752,87.048897 
	C307.847839,84.399956 305.941132,83.453926 302.777466,83.458725 
	C245.846756,83.545174 188.915894,83.514458 131.985123,83.567146 
	C130.234482,83.568771 128.484436,84.196312 126.347008,84.392303 
	C125.581688,83.659805 125.203476,83.067055 124.825272,82.474304 
	C124.622070,82.699165 124.217575,83.090508 124.245468,83.124245 
	C124.774002,83.763344 125.353584,84.360229 125.922546,84.965897 
	C120.941292,90.612175 115.960045,96.258446 110.311234,102.008499 
	C108.745956,103.086639 107.848236,104.060997 106.705719,105.024612 
	C106.460915,105.013870 105.970932,105.004128 105.730545,105.004517 
	C105.490158,105.004898 105.008682,105.005310 104.755547,105.004059 
	C104.333649,105.002892 104.164886,105.002975 103.703178,105.300171 
	C103.294861,118.838440 103.167908,132.079514 103.104309,145.320923 
	C103.101624,145.881561 103.687027,146.445038 104.002686,147.339111 
	C104.006775,148.113602 104.006645,148.556198 103.623253,148.833099 
	C99.961349,148.444931 96.668678,147.925629 93.407837,148.079712 
	C89.829773,148.248810 88.900864,146.847153 88.939308,143.462036 
	C89.091843,130.031082 89.037430,116.597145 88.957405,103.164925 
	C88.947136,101.441284 88.336426,99.721214 88.000755,97.624527 
	C87.998528,96.499603 87.999420,95.749649 88.000153,94.999847 
	C88.000000,95.000000 87.999695,95.000603 88.160576,94.918777 
	C88.387909,94.739143 88.531464,94.584839 88.508041,94.552879 
	C88.376991,94.374046 88.205612,94.224770 87.918030,93.930481 
	C87.788055,93.795563 87.516869,93.537033 87.516869,93.537033 
M345.696716,69.030548 
	C345.165863,67.643791 344.748871,66.199615 344.083801,64.880524 
	C341.595703,59.945580 336.882629,57.282566 331.502045,57.818672 
	C326.053040,58.361599 322.237244,61.207344 320.384125,66.388298 
	C318.477509,71.718636 320.090454,77.162949 324.263214,80.776093 
	C328.333923,84.300858 332.938873,85.038811 337.681519,82.903305 
	C343.149536,80.441177 345.866913,75.903130 345.696716,69.030548 
M250.500000,81.994774 
	C268.763702,81.994774 287.027435,81.994774 305.291138,81.994774 
	C305.286652,81.329948 305.282166,80.665131 305.277679,80.000305 
	C285.406250,80.000305 265.534790,80.000313 245.663345,80.000313 
	C225.669220,80.000313 205.674515,80.094688 185.681137,79.973351 
	C166.297058,79.855713 146.916870,80.551102 127.489609,79.940262 
	C128.979523,80.880493 130.510956,81.771194 132.045288,81.776253 
	C171.196686,81.905457 210.348358,81.942017 250.500000,81.994774 
z"/>
<path fill="#EB6B20" opacity="1.000000" stroke="none" 
	d="
M159.999237,174.006912 
	C160.317139,173.202209 160.635056,172.397491 160.977661,171.267197 
	C161.825653,170.858612 162.648926,170.702957 163.472214,170.703018 
	C210.007675,170.706863 256.543152,170.723694 303.537964,170.841095 
	C304.544617,171.787766 305.091919,172.632553 305.350098,173.740814 
	C256.707062,174.005157 208.353149,174.006042 159.999237,174.006912 
z"/>
<path fill="#FA6B18" opacity="1.000000" stroke="none" 
	d="
M162.905945,197.966766 
	C162.445206,197.976547 162.033768,197.985306 161.311096,197.996964 
	C160.999847,197.999847 160.992676,197.993011 160.992676,197.993011 
	C161.045044,191.003632 161.040680,191.036591 167.650101,191.910721 
	C169.120712,192.105179 170.633881,191.977921 173.033569,191.998978 
	C217.959778,191.999451 261.979889,191.999725 306.000000,192.000000 
	C305.768677,192.407043 305.537354,192.814087 305.189758,193.425919 
	C297.596039,193.706711 290.118622,193.845291 282.641174,193.848206 
	C244.392120,193.863144 206.143051,193.843094 167.172150,193.578918 
	C162.517120,192.706116 163.143127,195.603333 162.947647,197.867447 
	C162.947647,197.867447 162.955246,197.965759 162.905945,197.966766 
z"/>
<path fill="#010012" opacity="1.000000" stroke="none" 
	d="
M116.999695,58.999092 
	C118.394699,58.665970 119.789482,58.042599 121.184746,58.041485 
	C181.603943,57.993130 242.023163,57.998070 302.442383,58.016689 
	C303.419342,58.016991 304.396210,58.266617 305.197205,58.699532 
	C242.347427,58.999146 179.673569,58.999119 116.999695,58.999092 
z"/>
<path fill="#010600" opacity="1.000000" stroke="none" 
	d="
M117.007317,59.273125 
	C179.673569,58.999119 242.347427,58.999146 305.484253,58.997837 
	C305.947205,58.996506 305.965057,59.405827 305.954376,59.610390 
	C305.943695,59.814957 305.994293,60.092342 305.567566,60.182930 
	C270.221832,60.264137 235.302841,60.234638 200.383865,60.251820 
	C172.949631,60.265320 145.515411,60.336479 117.834274,60.258217 
	C117.403664,60.121273 117.219978,60.108143 117.036301,60.095016 
	C117.029182,59.912395 117.022057,59.729778 117.007317,59.273125 
z"/>
<path fill="#F56A0D" opacity="1.000000" stroke="none" 
	d="
M265.917053,223.745819 
	C228.286652,223.996017 190.702530,223.996017 153.118423,223.996017 
	C153.118149,223.657944 153.117874,223.319870 153.117584,222.981796 
	C190.149612,222.981796 227.181625,222.981796 264.693665,222.958313 
	C265.436920,223.121750 265.700134,223.308670 265.917053,223.745819 
z"/>
<path fill="#FA6B18" opacity="1.000000" stroke="none" 
	d="
M88.000305,94.999695 
	C87.999420,95.749649 87.998528,96.499603 87.998856,97.624626 
	C88.000076,97.999695 88.003525,97.994858 87.706467,98.289932 
	C87.273651,114.722923 87.137894,130.860855 86.999519,147.376526 
	C86.316139,148.838333 85.635376,149.922394 84.954620,151.006439 
	C84.877014,133.650543 84.799416,116.294640 85.087769,98.287903 
	C85.544533,97.009636 85.635323,96.382225 85.726120,95.754807 
	C85.726120,95.754807 85.920837,95.904137 86.099579,95.795959 
	C86.442490,95.353279 86.606651,95.018768 86.770813,94.684265 
	C86.770813,94.684265 86.725441,94.832947 87.031876,94.862495 
	C87.558983,94.927925 87.779640,94.963814 88.000305,94.999695 
z"/>
<path fill="#F96912" opacity="1.000000" stroke="none" 
	d="
M105.970932,105.004128 
	C105.970932,105.004128 106.460915,105.013870 106.716278,105.264793 
	C107.117561,105.962151 107.263474,106.408585 107.409386,106.855019 
	C107.484512,119.632149 107.559639,132.409286 107.404892,145.762878 
	C107.062599,146.524704 106.972519,146.720367 106.670410,146.948395 
	C106.436035,146.970474 105.965828,146.994415 105.974487,146.526443 
	C105.979073,132.373688 105.975006,118.688911 105.970932,105.004128 
z"/>
<path fill="#BA3E1C" opacity="1.000000" stroke="none" 
	d="
M127.558746,203.141754 
	C127.903671,216.550873 127.947594,230.269577 128.005890,244.450378 
	C127.657707,244.270309 126.977226,243.627045 126.979469,242.986191 
	C127.025528,229.807739 127.149368,216.629593 127.558746,203.141754 
z"/>
<path fill="#E06B1C" opacity="1.000000" stroke="none" 
	d="
M85.170433,151.383713 
	C85.635376,149.922394 86.316139,148.838333 87.245758,147.377991 
	C87.494606,147.001694 87.987114,147.005783 87.991554,147.427368 
	C88.911110,148.890457 89.745483,150.727600 90.755882,150.830139 
	C94.354172,151.195312 98.019135,151.088104 101.642685,150.879135 
	C102.464043,150.831757 103.220299,149.655441 104.006516,148.998779 
	C104.006645,148.556198 104.006775,148.113602 104.003387,147.335663 
	C103.999878,147.000290 103.998253,147.007553 104.246674,147.005341 
	C104.495087,147.003113 104.991905,146.997467 104.994247,147.387360 
	C105.742279,148.879227 106.487961,149.981171 107.233650,151.083130 
	C99.951180,151.309082 92.668716,151.535034 85.170433,151.383713 
z"/>
<path fill="#EF691E" opacity="1.000000" stroke="none" 
	d="
M107.420013,150.787384 
	C106.487961,149.981171 105.742279,148.879227 104.998070,147.388275 
	C104.999550,146.999268 104.997391,146.991913 105.239502,146.993225 
	C105.481613,146.994553 105.965828,146.994415 105.965828,146.994415 
	C105.965828,146.994415 106.436035,146.970474 106.788116,146.984009 
	C107.140190,146.997559 107.382507,147.025681 107.382507,147.025681 
	C107.457130,148.181000 107.531746,149.336319 107.420013,150.787384 
z"/>
<path fill="#EF691E" opacity="1.000000" stroke="none" 
	d="
M163.243347,197.747620 
	C163.143127,195.603333 162.517120,192.706116 166.701996,193.544128 
	C165.815491,195.053055 164.677261,196.340424 163.243347,197.747620 
z"/>
<path fill="#E06B1C" opacity="1.000000" stroke="none" 
	d="
M107.585205,106.550873 
	C107.263474,106.408585 107.117561,105.962151 106.961082,105.275536 
	C107.848236,104.060997 108.745956,103.086639 110.014359,102.132248 
	C109.510368,103.517052 108.635696,104.881889 107.585205,106.550873 
z"/>
<path fill="#EB6B20" opacity="1.000000" stroke="none" 
	d="
M306.934937,170.145584 
	C307.251068,170.548874 307.332153,171.040436 307.413269,171.531982 
	C307.018036,171.467606 306.622803,171.403229 306.086609,171.109436 
	C306.197052,170.664612 306.448486,170.449219 306.934937,170.145584 
z"/>
<path fill="#EF691E" opacity="1.000000" stroke="none" 
	d="
M85.437958,95.927765 
	C85.635323,96.382225 85.544533,97.009636 85.184662,97.828690 
	C84.993660,97.380463 85.071739,96.740593 85.437958,95.927765 
z"/>
<path fill="#E06B1C" opacity="1.000000" stroke="none" 
	d="
M107.489128,146.797714 
	C107.382507,147.025681 107.140190,146.997559 107.022491,146.961945 
	C106.972519,146.720367 107.062599,146.524704 107.286453,146.223114 
	C107.463844,146.261200 107.529793,146.415466 107.489128,146.797714 
z"/>
<path fill="#A74909" opacity="1.000000" stroke="none" 
	d="
M117.013260,60.306152 
	C117.219978,60.108143 117.403664,60.121273 117.715515,60.450699 
	C117.598465,60.947239 117.387169,61.161022 117.209801,61.408340 
	C117.209801,61.408340 117.050789,61.197380 117.016464,61.069679 
	C116.982132,60.941982 116.990227,60.517288 117.013260,60.306152 
z"/>
<path fill="#EF691E" opacity="1.000000" stroke="none" 
	d="
M86.500900,94.766113 
	C86.606651,95.018768 86.442490,95.353279 85.988663,95.743515 
	C85.876328,95.482147 86.053658,95.165054 86.500900,94.766113 
z"/>
<path fill="#EF691E" opacity="1.000000" stroke="none" 
	d="
M88.000153,94.999847 
	C87.779640,94.963814 87.558983,94.927925 87.018715,94.785889 
	C86.714493,94.332703 86.851883,94.043655 87.314079,93.674812 
	C87.516869,93.537033 87.788055,93.795563 87.901077,94.163666 
	C88.014099,94.531769 87.999695,95.000603 87.999695,95.000603 
	C87.999695,95.000603 88.000000,95.000000 88.000153,94.999847 
z"/>
<path fill="#050505" opacity="1.000000" stroke="none" 
	d="
M330.370056,301.246643 
	C322.333008,298.932953 319.171356,294.473419 319.826965,286.914246 
	C320.352997,280.849548 324.977844,276.275238 331.198730,275.666779 
	C337.961304,275.005341 343.287903,278.721832 345.387787,285.566864 
	C347.946106,293.906403 340.897369,301.508728 330.370056,301.246643 
z"/>
<path fill="#080303" opacity="1.000000" stroke="none" 
	d="
M335.419800,169.021667 
	C343.956635,172.417511 347.625427,179.066635 345.020477,185.732513 
	C342.146301,193.087265 335.257812,196.475876 328.205383,194.004272 
	C321.989136,191.825729 318.670929,185.678635 319.951630,178.786667 
	C320.975403,173.277496 326.631561,167.537079 335.419800,169.021667 
z"/>
<path fill="#F96912" opacity="1.000000" stroke="none" 
	d="
M159.911621,174.296143 
	C208.353149,174.006042 256.707062,174.005157 305.529358,174.004028 
	C304.604065,174.336044 303.210693,174.957199 301.816681,174.958710 
	C255.101486,175.009567 208.386215,175.002930 161.670975,174.984436 
	C161.055267,174.984192 160.439651,174.724152 159.911621,174.296143 
z"/>
<path fill="#EA6C28" opacity="1.000000" stroke="none" 
	d="
M306.000092,191.752670 
	C261.979889,191.999725 217.959778,191.999451 173.471359,191.997437 
	C173.003052,191.995728 173.000900,191.501892 173.468872,191.251999 
	C217.957886,191.004959 261.978943,191.007828 306.000000,191.010696 
	C306.000000,191.010696 306.000183,191.505341 306.000092,191.752670 
z"/>
<path fill="#FD670A" opacity="1.000000" stroke="none" 
	d="
M306.001953,190.756683 
	C261.978943,191.007828 217.957886,191.004959 173.468109,191.005096 
	C172.998749,190.839920 172.998123,190.671783 173.467590,190.251831 
	C217.958115,189.998199 261.978546,189.996399 305.998993,189.994598 
	C306.000641,190.163956 306.002289,190.333298 306.001953,190.756683 
z"/>
<path fill="#E76D26" opacity="1.000000" stroke="none" 
	d="
M305.701294,189.702347 
	C261.978546,189.996399 217.958115,189.998199 173.469086,189.999634 
	C174.228821,189.666351 175.456818,189.043793 176.685501,189.042419 
	C218.948105,188.994720 261.210785,189.003998 303.473450,189.025116 
	C304.116882,189.025436 304.760193,189.276199 305.701294,189.702347 
z"/>
<path fill="#FA6B18" opacity="1.000000" stroke="none" 
	d="
M161.002472,198.003372 
	C160.612289,198.436478 160.219498,198.866058 159.826706,199.295624 
	C159.682068,199.117477 159.537445,198.939346 159.392807,198.761200 
	C159.747574,198.523132 160.102356,198.285065 160.724899,198.020020 
	C160.992676,197.993011 160.999847,197.999847 161.002472,198.003372 
z"/>
<path fill="#080303" opacity="1.000000" stroke="none" 
	d="
M345.736877,69.422531 
	C345.866913,75.903130 343.149536,80.441177 337.681519,82.903305 
	C332.938873,85.038811 328.333923,84.300858 324.263214,80.776093 
	C320.090454,77.162949 318.477509,71.718636 320.384125,66.388298 
	C322.237244,61.207344 326.053040,58.361599 331.502045,57.818672 
	C336.882629,57.282566 341.595703,59.945580 344.083801,64.880524 
	C344.748871,66.199615 345.165863,67.643791 345.736877,69.422531 
z"/>
<path fill="#FF6718" opacity="1.000000" stroke="none" 
	d="
M117.541092,61.609512 
	C117.387169,61.161022 117.598465,60.947239 117.962440,60.574516 
	C145.515411,60.336479 172.949631,60.265320 200.383865,60.251820 
	C235.302841,60.234638 270.221832,60.264137 305.613281,60.316292 
	C304.846008,60.904942 303.606628,61.927299 302.366425,61.928337 
	C241.030899,61.979576 179.695282,61.943275 118.359688,61.912102 
	C118.197243,61.912022 118.034821,61.845943 117.541092,61.609512 
z"/>
<path fill="#F96918" opacity="1.000000" stroke="none" 
	d="
M250.000000,81.994759 
	C210.348358,81.942017 171.196686,81.905457 132.045288,81.776253 
	C130.510956,81.771194 128.979523,80.880493 127.489609,79.940262 
	C146.916870,80.551102 166.297058,79.855713 185.681137,79.973351 
	C205.674515,80.094688 225.669220,80.000313 245.663345,80.000313 
	C265.534790,80.000313 285.406250,80.000305 305.277679,80.000305 
	C305.282166,80.665131 305.286652,81.329948 305.291138,81.994774 
	C287.027435,81.994774 268.763702,81.994774 250.000000,81.994759 
z"/>
<path fill="#F66A15" opacity="1.000000" stroke="none" 
	d="
M103.623260,148.833099 
	C103.220299,149.655441 102.464043,150.831757 101.642685,150.879135 
	C98.019135,151.088104 94.354172,151.195312 90.755882,150.830139 
	C89.745483,150.727600 88.911110,148.890457 87.996689,146.958084 
	C87.999428,130.043091 88.001480,114.018974 88.003525,97.994858 
	C88.003525,97.994858 88.000076,97.999695 88.001968,97.999588 
	C88.336426,99.721214 88.947136,101.441284 88.957405,103.164925 
	C89.037430,116.597145 89.091843,130.031082 88.939308,143.462036 
	C88.900864,146.847153 89.829773,148.248810 93.407837,148.079712 
	C96.668678,147.925629 99.961349,148.444931 103.623260,148.833099 
z"/>
<path fill="#F56A0D" opacity="1.000000" stroke="none" 
	d="
M103.999176,147.003738 
	C103.687027,146.445038 103.101624,145.881561 103.104309,145.320923 
	C103.167908,132.079514 103.294861,118.838440 103.704819,105.768478 
	C103.999023,119.628960 103.998642,133.318253 103.998253,147.007553 
	C103.998253,147.007553 103.999878,147.000290 103.999176,147.003738 
z"/>
<path fill="#F7652A" opacity="1.000000" stroke="none" 
	d="
M104.246674,147.005341 
	C103.998642,133.318253 103.999023,119.628960 103.997772,105.471359 
	C104.164886,105.002975 104.333649,105.002892 104.753059,105.472092 
	C105.001602,119.624893 104.999496,133.308411 104.997391,146.991913 
	C104.997391,146.991913 104.999550,146.999268 104.995728,146.998367 
	C104.991905,146.997467 104.495087,147.003113 104.246674,147.005341 
z"/>
<path fill="#E06B1C" opacity="1.000000" stroke="none" 
	d="
M105.239502,146.993225 
	C104.999496,133.308411 105.001602,119.624893 105.006195,105.473343 
	C105.008682,105.005310 105.490158,105.004898 105.730545,105.004517 
	C105.975006,118.688911 105.979073,132.373688 105.974487,146.526443 
	C105.965828,146.994415 105.481613,146.994553 105.239502,146.993225 
z"/>
<path fill="#F96918" opacity="1.000000" stroke="none" 
	d="
M125.958374,84.978760 
	C125.353584,84.360229 124.774002,83.763344 124.245468,83.124245 
	C124.217575,83.090508 124.622070,82.699165 124.825272,82.474304 
	C125.203476,83.067055 125.581688,83.659805 125.963814,84.586365 
	C125.967735,84.920166 125.994217,84.991623 125.958374,84.978760 
z"/>
<path fill="#FA6B18" opacity="1.000000" stroke="none" 
	d="
M88.160576,94.918777 
	C87.999695,95.000603 88.014099,94.531769 88.031052,94.298584 
	C88.205612,94.224770 88.376991,94.374046 88.508041,94.552879 
	C88.531464,94.584839 88.387909,94.739143 88.160576,94.918777 
z"/>
<path fill="#EA6C28" opacity="1.000000" stroke="none" 
	d="
M87.706467,98.289932 
	C88.001480,114.018974 87.999428,130.043091 87.992249,146.536499 
	C87.987114,147.005783 87.494606,147.001694 87.248367,147.000244 
	C87.137894,130.860855 87.273651,114.722923 87.706467,98.289932 
z"/>
</svg>