<svg version="1.1" id="Layer_1" xmlns="http://www.w3.org/2000/svg" xmlns:xlink="http://www.w3.org/1999/xlink" x="0px" y="0px"
	 width="100%" viewBox="0 0 407 366" enable-background="new 0 0 407 366" xml:space="preserve">
<path fill="#FEFEFE" opacity="1.000000" stroke="none" 
	d="
M239.000000,367.000000 
	C159.333328,367.000000 80.166664,367.000000 1.000000,367.000000 
	C1.000000,245.000000 1.000000,123.000000 1.000000,1.000000 
	C136.666672,1.000000 272.333344,1.000000 408.000000,1.000000 
	C408.000000,123.000000 408.000000,245.000000 408.000000,367.000000 
	C351.833344,367.000000 295.666656,367.000000 239.000000,367.000000 
M142.541687,204.642532 
	C143.678787,203.348206 144.815887,202.053864 146.892349,200.843048 
	C188.111725,200.850891 229.331100,200.866608 270.550476,200.856018 
	C275.363647,200.854782 280.176727,200.708237 285.613739,200.977570 
	C286.395050,202.040756 287.190674,203.093719 287.955444,204.168671 
	C297.135529,217.071594 312.811218,220.678116 326.221527,212.908508 
	C336.188477,207.133942 344.915375,191.576233 336.717560,175.939957 
	C331.377289,165.754044 322.736542,160.436432 311.281372,160.647858 
	C299.694489,160.861710 291.034149,166.224472 285.691833,177.221832 
	C285.440979,177.437698 285.190125,177.653580 284.017792,177.730637 
	C236.039673,177.720078 188.061401,177.663147 140.083923,177.833908 
	C137.647766,177.842560 134.565231,179.197830 132.895294,180.972290 
	C124.013344,190.410141 115.486244,200.181931 106.229874,210.452011 
	C106.133919,223.625900 106.022408,236.799744 105.988831,249.973801 
	C105.987183,250.619186 106.667336,251.266312 107.954170,252.054352 
	C153.877640,252.054352 199.801117,252.054352 246.530029,252.054352 
	C245.990311,243.876740 245.494797,236.368881 244.706680,228.441910 
	C244.139008,228.569016 243.571320,228.696121 242.078262,228.984390 
	C205.872589,228.996552 169.666931,229.011780 133.461258,229.006912 
	C132.312683,229.006760 131.164139,228.799789 129.920502,228.391373 
	C129.816422,228.196411 129.658585,228.067047 129.208023,227.270248 
	C129.280838,226.509384 129.353653,225.748535 129.681717,224.801575 
	C129.842102,224.470947 129.761871,224.208878 129.237701,223.250320 
	C129.980103,221.172836 130.281265,218.761246 131.551666,217.083572 
	C134.744598,212.867020 138.375397,208.982025 141.941818,204.968216 
	C141.941818,204.968216 141.938171,204.857010 142.541687,204.642532 
M96.270882,67.321953 
	C95.844299,67.536873 95.302475,67.649513 95.007835,67.981514 
	C85.304878,78.915054 75.542191,89.798126 66.031456,100.896988 
	C64.579155,102.591789 63.631271,105.289490 63.599831,107.539398 
	C63.381062,123.195564 63.453979,138.855972 63.473209,154.514969 
	C63.474937,155.923370 63.758488,157.331421 63.902653,158.661179 
	C71.682785,158.661179 78.944992,158.661179 86.076843,158.661179 
	C86.351349,158.078506 86.607483,157.787109 86.609406,157.494034 
	C86.663956,149.167923 87.446304,140.760239 86.557205,132.533661 
	C85.059982,118.680481 88.130997,107.098595 99.560738,98.357193 
	C101.243866,97.069954 102.189316,94.778862 103.918053,93.600815 
	C105.952606,92.214378 108.466583,90.680534 110.776794,90.674026 
	C167.915695,90.512894 225.055237,90.513786 282.194122,90.674614 
	C284.243103,90.680374 286.983307,92.079582 288.221863,93.719955 
	C297.653107,106.211029 312.990356,109.811165 325.818817,102.215439 
	C338.773071,94.545235 343.339600,79.321930 336.874298,65.359917 
	C332.293671,55.467873 321.276978,48.975494 310.073608,49.565720 
	C299.397949,50.128139 288.372772,57.906628 284.099091,67.232986 
	C223.191788,67.231140 162.284485,67.227432 101.377182,67.238411 
	C99.888969,67.238678 98.400780,67.402275 96.270882,67.321953 
M103.647087,184.150360 
	C111.269066,176.236481 119.024918,168.444992 126.436287,160.338562 
	C128.845428,157.703476 131.311325,157.005783 134.685059,157.016464 
	C167.846893,157.121384 201.009216,157.080170 234.171387,157.080429 
	C235.961426,157.080444 237.751465,157.080429 239.744080,157.080429 
	C239.744080,149.261505 239.744080,141.872757 239.744080,134.314163 
	C238.849670,134.215317 238.215683,134.084137 237.581650,134.083908 
	C199.253525,134.070343 160.925217,134.024094 122.597832,134.189331 
	C120.638672,134.197784 118.241234,135.598251 116.800514,137.081635 
	C99.864105,154.519531 83.022255,172.050537 66.325150,189.717361 
	C64.816216,191.313965 63.735180,194.018631 63.720787,196.216995 
	C63.545181,223.045547 63.550400,249.875977 63.720158,276.704590 
	C63.732807,278.704254 64.869774,281.213379 66.326691,282.600891 
	C74.040382,289.947266 82.143463,296.885101 89.848381,304.240204 
	C92.516426,306.787140 95.247337,307.494171 98.772148,307.489288 
	C159.430481,307.405518 220.089020,307.462036 280.747253,307.343414 
	C284.311493,307.336456 286.339050,308.334442 288.351746,311.358673 
	C295.506256,322.108856 308.063171,326.203491 320.360901,322.282135 
	C331.955170,318.585052 339.980774,307.615265 339.932404,295.530853 
	C339.881927,282.920807 331.856506,272.404663 319.331360,268.536194 
	C307.719910,264.949890 294.938934,269.522827 288.063538,280.307373 
	C285.965027,283.599091 283.766724,284.499634 280.085114,284.491852 
	C226.759232,284.379028 173.428360,284.036407 120.110443,284.697266 
	C107.771339,284.850220 97.832062,282.750214 89.860886,272.950012 
	C87.827530,270.450104 86.603821,268.365784 86.624535,265.132111 
	C86.745163,246.302094 86.832413,227.468933 86.581505,208.641495 
	C86.516815,203.787842 87.672310,200.162476 91.376511,196.880051 
	C95.598808,193.138504 99.259033,188.762680 103.647087,184.150360 
z"/>
<path fill="#373737" opacity="1.000000" stroke="none" 
	d="
M103.405319,184.406448 
	C99.259033,188.762680 95.598808,193.138504 91.376511,196.880051 
	C87.672310,200.162476 86.516815,203.787842 86.581505,208.641495 
	C86.832413,227.468933 86.745163,246.302094 86.624535,265.132111 
	C86.603821,268.365784 87.827530,270.450104 89.860886,272.950012 
	C97.832062,282.750214 107.771339,284.850220 120.110443,284.697266 
	C173.428360,284.036407 226.759232,284.379028 280.085114,284.491852 
	C283.766724,284.499634 285.965027,283.599091 288.063538,280.307373 
	C294.938934,269.522827 307.719910,264.949890 319.331360,268.536194 
	C331.856506,272.404663 339.881927,282.920807 339.932404,295.530853 
	C339.980774,307.615265 331.955170,318.585052 320.360901,322.282135 
	C308.063171,326.203491 295.506256,322.108856 288.351746,311.358673 
	C286.339050,308.334442 284.311493,307.336456 280.747253,307.343414 
	C220.089020,307.462036 159.430481,307.405518 98.772148,307.489288 
	C95.247337,307.494171 92.516426,306.787140 89.848381,304.240204 
	C82.143463,296.885101 74.040382,289.947266 66.326691,282.600891 
	C64.869774,281.213379 63.732807,278.704254 63.720158,276.704590 
	C63.550400,249.875977 63.545181,223.045547 63.720787,196.216995 
	C63.735180,194.018631 64.816216,191.313965 66.325150,189.717361 
	C83.022255,172.050537 99.864105,154.519531 116.800514,137.081635 
	C118.241234,135.598251 120.638672,134.197784 122.597832,134.189331 
	C160.925217,134.024094 199.253525,134.070343 237.581650,134.083908 
	C238.215683,134.084137 238.849670,134.215317 239.744080,134.314163 
	C239.744080,141.872757 239.744080,149.261505 239.744080,157.080429 
	C237.751465,157.080429 235.961426,157.080444 234.171387,157.080429 
	C201.009216,157.080170 167.846893,157.121384 134.685059,157.016464 
	C131.311325,157.005783 128.845428,157.703476 126.436287,160.338562 
	C119.024918,168.444992 111.269066,176.236481 103.405319,184.406448 
M309.824677,308.282623 
	C320.160461,308.500183 327.164429,300.600189 324.197571,292.070831 
	C321.831482,285.268494 316.453552,281.813354 309.675873,282.741150 
	C303.693451,283.560120 299.319946,288.077606 298.825958,293.948273 
	C298.188660,301.521759 301.334137,305.930267 309.824677,308.282623 
z"/>
<path fill="#F26C20" opacity="1.000000" stroke="none" 
	d="
M130.015579,228.689240 
	C131.164139,228.799789 132.312683,229.006760 133.461258,229.006912 
	C169.666931,229.011780 205.872589,228.996552 242.868195,228.996643 
	C244.105179,228.959595 244.552246,228.910309 244.999298,228.861023 
	C245.494797,236.368881 245.990311,243.876740 246.530029,252.054352 
	C199.801117,252.054352 153.877640,252.054352 107.467880,251.521729 
	C106.933159,237.272095 106.884727,223.555115 106.836288,209.838120 
	C115.486244,200.181931 124.013344,190.410141 132.895294,180.972290 
	C134.565231,179.197830 137.647766,177.842560 140.083923,177.833908 
	C188.061401,177.663147 236.039673,177.720078 284.618378,178.033661 
	C285.617737,178.404404 286.016541,178.472107 286.415314,178.539825 
	C286.331909,178.045074 286.248505,177.550323 286.165100,177.055573 
	C291.034149,166.224472 299.694489,160.861710 311.281372,160.647858 
	C322.736542,160.436432 331.377289,165.754044 336.717560,175.939957 
	C344.915375,191.576233 336.188477,207.133942 326.221527,212.908508 
	C312.811218,220.678116 297.135529,217.071594 287.955444,204.168671 
	C287.190674,203.093719 286.395050,202.040756 285.298035,200.531509 
	C284.988251,199.723022 284.994141,199.360596 285.000061,198.752441 
	C285.000122,198.506714 285.001221,198.015213 285.003418,197.759308 
	C285.004181,197.332825 285.002716,197.162231 284.705383,196.696701 
	C283.432800,196.268173 282.456116,196.018127 281.479309,196.017700 
	C237.380173,195.998260 193.281021,195.991623 149.181946,196.042374 
	C147.787399,196.043976 146.393555,196.663101 144.999847,197.245331 
	C145.002792,197.663589 145.005295,197.830887 144.628510,198.003937 
	C142.068192,200.501617 139.887131,202.993500 137.706085,205.485397 
	C138.034546,205.746216 138.362991,206.007034 138.691452,206.267853 
	C139.737854,205.833267 140.784241,205.398666 141.830643,204.964081 
	C138.375397,208.982025 134.744598,212.867020 131.551666,217.083572 
	C130.281265,218.761246 129.980103,221.172836 129.247742,223.874634 
	C129.314026,224.661865 129.370239,224.824768 129.426453,224.987671 
	C129.353653,225.748535 129.280838,226.509384 129.274948,227.834778 
	C129.341873,228.399307 129.606613,228.711639 129.606613,228.711639 
	C129.606613,228.711639 130.015579,228.689240 130.015579,228.689240 
M138.609665,181.609665 
	C139.587158,181.739899 140.564590,181.983658 141.542130,181.984055 
	C187.968216,182.002884 234.394302,182.009323 280.820343,181.958847 
	C282.213531,181.957336 283.606049,181.334900 284.412018,180.406815 
	C283.435852,180.270966 282.459747,180.016708 281.483521,180.016281 
	C235.049957,179.996643 188.616364,179.990128 142.182861,180.041885 
	C140.795868,180.043427 139.409607,180.682159 138.609665,181.609665 
M322.579254,195.884995 
	C323.001526,194.981522 323.422424,194.077408 323.846313,193.174698 
	C326.247406,188.061630 324.367035,183.592499 321.149780,179.818405 
	C317.718048,175.792725 312.813202,174.943924 307.867920,176.254303 
	C302.994965,177.545502 299.923401,180.983093 298.937378,186.015030 
	C297.746460,192.092331 300.332123,197.547501 305.592377,200.322281 
	C311.083466,203.218811 316.925049,201.864182 322.579254,195.884995 
M133.406906,230.028000 
	C132.942169,230.151855 132.477448,230.275696 130.758072,230.733917 
	C168.994614,230.733917 205.954269,230.733917 242.913910,230.733917 
	C242.914490,230.496964 242.915070,230.259995 242.915649,230.023041 
	C206.683746,230.023041 170.451828,230.023041 133.406906,230.028000 
z"/>
<path fill="#F16D22" opacity="1.000000" stroke="none" 
	d="
M285.041656,67.226250 
	C288.372772,57.906628 299.397949,50.128139 310.073608,49.565720 
	C321.276978,48.975494 332.293671,55.467873 336.874298,65.359917 
	C343.339600,79.321930 338.773071,94.545235 325.818817,102.215439 
	C312.990356,109.811165 297.653107,106.211029 288.221863,93.719955 
	C286.983307,92.079582 284.243103,90.680374 282.194122,90.674614 
	C225.055237,90.513786 167.915695,90.512894 110.776794,90.674026 
	C108.466583,90.680534 105.952606,92.214378 103.918053,93.600815 
	C102.189316,94.778862 101.243866,97.069954 99.560738,98.357193 
	C88.130997,107.098595 85.059982,118.680481 86.557205,132.533661 
	C87.446304,140.760239 86.663956,149.167923 86.609406,157.494034 
	C86.607483,157.787109 86.351349,158.078506 86.076843,158.661179 
	C78.944992,158.661179 71.682785,158.661179 63.902653,158.661179 
	C63.758488,157.331421 63.474937,155.923370 63.473209,154.514969 
	C63.453979,138.855972 63.381062,123.195564 63.599831,107.539398 
	C63.631271,105.289490 64.579155,102.591789 66.031456,100.896988 
	C75.542191,89.798126 85.304878,78.915054 95.007835,67.981514 
	C95.302475,67.649513 95.844299,67.536873 96.496979,67.696060 
	C97.501633,68.380135 98.280006,68.960983 99.058769,68.961517 
	C159.689072,69.003296 220.319427,69.011124 280.949646,68.925194 
	C282.314453,68.923264 283.677673,67.817245 285.041656,67.226250 
M83.004814,154.689941 
	C83.131851,155.437820 83.258888,156.185699 83.385925,156.933563 
	C83.589455,156.908188 83.792976,156.882797 83.996506,156.857422 
	C83.996506,155.903107 83.996506,154.948792 84.000000,154.000000 
	C84.000000,154.000000 83.994484,153.996475 84.487358,154.002319 
	C84.487358,154.002319 84.980125,154.007263 85.564308,153.413254 
	C85.672127,140.173645 85.791176,126.934090 85.849121,113.694275 
	C85.851593,113.129967 85.288307,112.563187 84.493065,111.999397 
	C84.493065,111.999397 83.997559,112.001526 83.499084,112.000015 
	C83.499084,112.000015 83.000610,111.999641 82.404259,112.585938 
	C82.288071,125.829048 82.160301,139.072098 82.096008,152.315475 
	C82.093292,152.873734 82.680740,153.434830 82.999985,153.999969 
	C82.999985,153.999969 83.002136,154.004883 83.004814,154.689941 
M67.596535,153.414856 
	C67.713600,137.839111 67.840462,122.263412 67.908104,106.687447 
	C67.910538,106.126366 67.329308,105.562744 66.415512,105.580910 
	C66.296410,121.160538 66.167404,136.740128 66.098381,152.319977 
	C66.095909,152.878647 66.685402,153.439957 67.596535,153.414856 
M324.033264,73.772217 
	C319.757416,65.283592 311.794556,62.246864 304.974609,66.503975 
	C299.269104,70.065422 296.963562,77.558815 299.746582,83.495766 
	C302.522797,89.418190 309.307892,92.329460 315.666351,90.326393 
	C322.016113,88.326073 325.546143,81.851341 324.033264,73.772217 
M120.539398,87.000000 
	C116.136368,86.661575 111.733345,86.323151 107.330315,85.984718 
	C107.181206,86.391037 107.032097,86.797356 106.882988,87.203674 
	C109.440468,87.800392 111.997002,88.913254 114.555550,88.917892 
	C169.654266,89.017845 224.753220,88.996178 279.852112,88.982018 
	C281.365417,88.981628 282.878693,88.804260 284.391968,88.709419 
	C284.358948,88.139610 284.325928,87.569809 284.292908,87.000000 
	C230.038467,87.000000 175.784042,87.000000 120.539398,87.000000 
z"/>
<path fill="#F96112" opacity="1.000000" stroke="none" 
	d="
M284.570374,67.229614 
	C283.677673,67.817245 282.314453,68.923264 280.949646,68.925194 
	C220.319427,69.011124 159.689072,69.003296 99.058769,68.961517 
	C98.280006,68.960983 97.501633,68.380135 96.817825,67.779922 
	C98.400780,67.402275 99.888969,67.238678 101.377182,67.238411 
	C162.284485,67.227432 223.191788,67.231140 284.570374,67.229614 
z"/>
<path fill="#F56714" opacity="1.000000" stroke="none" 
	d="
M141.886230,204.966156 
	C140.784241,205.398666 139.737854,205.833267 138.691452,206.267853 
	C138.362991,206.007034 138.034546,205.746216 137.706085,205.485397 
	C139.887131,202.993500 142.068192,200.501617 144.624664,198.005035 
	C145.000092,198.000336 144.997192,197.996445 145.290161,198.295258 
	C147.394150,198.729385 149.205078,198.981979 151.016159,198.982834 
	C195.677429,199.004150 240.338715,198.998779 285.000000,198.998169 
	C284.994141,199.360596 284.988251,199.723022 284.986115,200.357269 
	C280.176727,200.708237 275.363647,200.854782 270.550476,200.856018 
	C229.331100,200.866608 188.111725,200.850891 146.172211,200.577744 
	C141.518097,199.691177 142.142441,202.594437 141.938171,204.857010 
	C141.938171,204.857010 141.941818,204.968216 141.886230,204.966156 
z"/>
<path fill="#FE8C6A" opacity="1.000000" stroke="none" 
	d="
M106.533081,210.145065 
	C106.884727,223.555115 106.933159,237.272095 107.005806,251.450867 
	C106.667336,251.266312 105.987183,250.619186 105.988831,249.973801 
	C106.022408,236.799744 106.133919,223.625900 106.533081,210.145065 
z"/>
<path fill="#F26C20" opacity="1.000000" stroke="none" 
	d="
M142.239929,204.749771 
	C142.142441,202.594437 141.518097,199.691177 145.702515,200.535980 
	C144.815887,202.053864 143.678787,203.348206 142.239929,204.749771 
z"/>
<path fill="#EE6D23" opacity="1.000000" stroke="none" 
	d="
M285.928467,177.138702 
	C286.248505,177.550323 286.331909,178.045074 286.415314,178.539825 
	C286.016541,178.472107 285.617737,178.404404 285.079102,178.103073 
	C285.190125,177.653580 285.440979,177.437698 285.928467,177.138702 
z"/>
<path fill="#FBECDB" opacity="1.000000" stroke="none" 
	d="
M244.852997,228.651459 
	C244.552246,228.910309 244.105179,228.959595 243.330887,228.916077 
	C243.571320,228.696121 244.139008,228.569016 244.852997,228.651459 
z"/>
<path fill="#FBECDB" opacity="1.000000" stroke="none" 
	d="
M129.554092,224.894623 
	C129.370239,224.824768 129.314026,224.661865 129.349426,224.257172 
	C129.761871,224.208878 129.842102,224.470947 129.554092,224.894623 
z"/>
<path fill="#FBECDB" opacity="1.000000" stroke="none" 
	d="
M129.968048,228.540314 
	C130.015579,228.689240 129.606613,228.711639 129.606613,228.711639 
	C129.606613,228.711639 129.341873,228.399307 129.394424,228.201294 
	C129.658585,228.067047 129.816422,228.196411 129.968048,228.540314 
z"/>
<path fill="#FBFBFB" opacity="1.000000" stroke="none" 
	d="
M309.400574,308.228638 
	C301.334137,305.930267 298.188660,301.521759 298.825958,293.948273 
	C299.319946,288.077606 303.693451,283.560120 309.675873,282.741150 
	C316.453552,281.813354 321.831482,285.268494 324.197571,292.070831 
	C327.164429,300.600189 320.160461,308.500183 309.400574,308.228638 
z"/>
<path fill="#FCFBF7" opacity="1.000000" stroke="none" 
	d="
M322.353607,196.186386 
	C316.925049,201.864182 311.083466,203.218811 305.592377,200.322281 
	C300.332123,197.547501 297.746460,192.092331 298.937378,186.015030 
	C299.923401,180.983093 302.994965,177.545502 307.867920,176.254303 
	C312.813202,174.943924 317.718048,175.792725 321.149780,179.818405 
	C324.367035,183.592499 326.247406,188.061630 323.846313,193.174698 
	C323.422424,194.077408 323.001526,194.981522 322.353607,196.186386 
z"/>
<path fill="#EE6D23" opacity="1.000000" stroke="none" 
	d="
M138.022995,181.023819 
	C139.409607,180.682159 140.795868,180.043427 142.182861,180.041885 
	C188.616364,179.990128 235.049957,179.996643 281.483521,180.016281 
	C282.459747,180.016708 283.435852,180.270966 284.236938,180.705170 
	C235.382233,181.010300 186.702621,181.017059 138.022995,181.023819 
z"/>
<path fill="#F96912" opacity="1.000000" stroke="none" 
	d="
M138.316330,181.316742 
	C186.702621,181.017059 235.382233,181.010300 284.530396,181.002747 
	C283.606049,181.334900 282.213531,181.957336 280.820343,181.958847 
	C234.394302,182.009323 187.968216,182.002884 141.542130,181.984055 
	C140.564590,181.983658 139.587158,181.739899 138.316330,181.316742 
z"/>
<path fill="#E76D27" opacity="1.000000" stroke="none" 
	d="
M144.999390,196.994354 
	C146.393555,196.663101 147.787399,196.043976 149.181946,196.042374 
	C193.281021,195.991623 237.380173,195.998260 281.479309,196.017700 
	C282.456116,196.018127 283.432800,196.268173 284.236603,196.699585 
	C237.708908,196.996384 191.354141,196.995377 144.999390,196.994354 
z"/>
<path fill="#FD670A" opacity="1.000000" stroke="none" 
	d="
M144.999847,197.245331 
	C191.354141,196.995377 237.708908,196.996384 284.532440,196.994507 
	C285.002716,197.162231 285.004181,197.332825 284.534668,197.753647 
	C237.708191,198.001389 191.352692,197.998917 144.997192,197.996445 
	C144.997192,197.996445 145.000092,198.000336 145.003937,197.999252 
	C145.005295,197.830887 145.002792,197.663589 144.999847,197.245331 
z"/>
<path fill="#EA6C28" opacity="1.000000" stroke="none" 
	d="
M145.290161,198.295258 
	C191.352692,197.998917 237.708191,198.001389 284.532471,198.009552 
	C285.001221,198.015213 285.000122,198.506714 285.000061,198.752441 
	C240.338715,198.998779 195.677429,199.004150 151.016159,198.982834 
	C149.205078,198.981979 147.394150,198.729385 145.290161,198.295258 
z"/>
<path fill="#F5690C" opacity="1.000000" stroke="none" 
	d="
M133.813416,230.025513 
	C170.451828,230.023041 206.683746,230.023041 242.915649,230.023041 
	C242.915070,230.259995 242.914490,230.496964 242.913910,230.733917 
	C205.954269,230.733917 168.994614,230.733917 130.758072,230.733917 
	C132.477448,230.275696 132.942169,230.151855 133.813416,230.025513 
z"/>
<path fill="#FDFAF7" opacity="1.000000" stroke="none" 
	d="
M324.160858,74.141998 
	C325.546143,81.851341 322.016113,88.326073 315.666351,90.326393 
	C309.307892,92.329460 302.522797,89.418190 299.746582,83.495766 
	C296.963562,77.558815 299.269104,70.065422 304.974609,66.503975 
	C311.794556,62.246864 319.757416,65.283592 324.160858,74.141998 
z"/>
<path fill="#F86817" opacity="1.000000" stroke="none" 
	d="
M121.034500,87.000000 
	C175.784042,87.000000 230.038467,87.000000 284.292908,87.000000 
	C284.325928,87.569809 284.358948,88.139610 284.391968,88.709419 
	C282.878693,88.804260 281.365417,88.981628 279.852112,88.982018 
	C224.753220,88.996178 169.654266,89.017845 114.555550,88.917892 
	C111.997002,88.913254 109.440468,87.800392 106.882988,87.203674 
	C107.032097,86.797356 107.181206,86.391037 107.330315,85.984718 
	C111.733345,86.323151 116.136368,86.661575 121.034500,87.000000 
z"/>
<path fill="#F5690C" opacity="1.000000" stroke="none" 
	d="
M67.020096,105.000305 
	C67.329308,105.562744 67.910538,106.126366 67.908104,106.687447 
	C67.840462,122.263412 67.713600,137.839111 67.299088,153.238785 
	C67.007797,137.041916 67.013947,121.021111 67.020096,105.000305 
z"/>
<path fill="#EA6C28" opacity="1.000000" stroke="none" 
	d="
M66.717804,105.290604 
	C67.013947,121.021111 67.007797,137.041916 67.000336,153.531372 
	C66.685402,153.439957 66.095909,152.878647 66.098381,152.319977 
	C66.167404,136.740128 66.296410,121.160538 66.717804,105.290604 
z"/>
<path fill="#F5662A" opacity="1.000000" stroke="none" 
	d="
M83.000610,111.999641 
	C83.000610,111.999641 83.499084,112.000015 83.749123,112.469254 
	C83.997597,126.624489 83.996040,140.310486 83.994484,153.996475 
	C83.994484,153.996475 84.000000,154.000000 83.749680,153.999847 
	C83.499359,153.999695 83.002136,154.004883 83.002136,154.004883 
	C83.002136,154.004883 82.999985,153.999969 82.998940,153.529312 
	C82.998802,139.372314 82.999702,125.685982 83.000610,111.999641 
z"/>
<path fill="#F76508" opacity="1.000000" stroke="none" 
	d="
M84.988571,111.997559 
	C85.288307,112.563187 85.851593,113.129967 85.849121,113.694275 
	C85.791176,126.934090 85.672127,140.173645 85.279251,153.240814 
	C84.992317,139.378098 84.990440,125.687828 84.988571,111.997559 
z"/>
<path fill="#E8711B" opacity="1.000000" stroke="none" 
	d="
M84.740814,111.998474 
	C84.990440,125.687828 84.992317,139.378098 84.987160,153.537811 
	C84.980125,154.007263 84.487358,154.002319 84.240921,153.999390 
	C83.996040,140.310486 83.997597,126.624489 83.998360,112.470009 
	C83.997559,112.001526 84.493065,111.999397 84.740814,111.998474 
z"/>
<path fill="#EE6F0F" opacity="1.000000" stroke="none" 
	d="
M82.702438,112.292786 
	C82.999702,125.685982 82.998802,139.372314 82.995575,153.526642 
	C82.680740,153.434830 82.093292,152.873734 82.096008,152.315475 
	C82.160301,139.072098 82.288071,125.829048 82.702438,112.292786 
z"/>
<path fill="#E8711B" opacity="1.000000" stroke="none" 
	d="
M83.003479,154.347412 
	C83.002136,154.004883 83.499359,153.999695 83.747932,153.997086 
	C83.996506,154.948792 83.996506,155.903107 83.996506,156.857422 
	C83.792976,156.882797 83.589455,156.908188 83.385925,156.933563 
	C83.258888,156.185699 83.131851,155.437820 83.003479,154.347412 
z"/>
</svg>